<svg version="1.1" xmlns="http://www.w3.org/2000/svg" width="972" height="918">
<path d="M0 0 C4.13361765 3.87152233 7.300201 8.02743691 10.5 12.6875 C11.55895839 14.20898623 12.61888751 15.72979719 13.6796875 17.25 C14.22463867 18.03246094 14.76958984 18.81492187 15.33105469 19.62109375 C18.05603598 23.50526837 20.83983524 27.34636227 23.625 31.1875 C27.4334476 36.44654447 31.23229421 41.71168167 35 47 C40.96033059 55.36194679 46.98241344 63.67921441 53 72 C59.42105409 80.87867815 65.83853602 89.75923342 72.19873047 98.68164062 C77.76274195 106.48061546 83.38586232 114.23708119 89 122 C95.42105409 130.87867815 101.83853602 139.75923342 108.19873047 148.68164062 C111.55306519 153.38335128 114.9298611 158.06862017 118.3125 162.75 C118.85962646 163.50724365 119.40675293 164.2644873 119.97045898 165.04467773 C122.74370707 168.88165963 125.519188 172.71701171 128.296875 176.55078125 C134.07734968 184.53420441 139.81171614 192.5464862 145.48291016 200.60791016 C150.71107049 208.02946453 156.032523 215.38265054 161.35888672 222.73388672 C164.07648173 226.486448 166.78794473 230.24343419 169.5 234 C170.58330362 235.50002146 171.66663696 237.00002146 172.75 238.5 C179.25 247.5 185.75 256.5 192.25 265.5 C192.7864917 266.24282227 193.3229834 266.98564453 193.87573242 267.75097656 C194.95667191 269.24768701 196.03756401 270.74443168 197.1184082 272.24121094 C199.8629754 276.04182637 202.60841966 279.84180298 205.35546875 283.640625 C210.65467424 290.97036718 215.94304209 298.30713176 221.19213867 305.67285156 C224.60863252 310.46267563 228.05238955 315.23253869 231.5 320 C235.34888977 325.32236265 239.18813421 330.65105378 243 336 C248.96044254 344.36186803 254.98241264 352.6792133 261 361 C267.42105409 369.87867815 273.83853602 378.75923342 280.19873047 387.68164062 C285.76274195 395.48061546 291.38586232 403.23708119 297 411 C299.22962512 414.0830022 301.45889177 417.16626263 303.6875 420.25 C304.2239917 420.99233887 304.7604834 421.73467773 305.31323242 422.49951172 C309.17567281 427.84823287 313.01875794 433.21047838 316.8425293 438.58691406 C318.44583082 440.83878471 320.03115902 443.0361975 321.8359375 445.1328125 C323 447 323 447 322.99703979 448.88021851 C321.42294467 452.22686298 318.40423061 453.25031893 315.21142578 454.78369141 C314.50052795 455.13884827 313.78963013 455.49400513 313.05718994 455.85992432 C310.6928897 457.03706943 308.31930846 458.19411252 305.9453125 459.3515625 C304.28768084 460.17256961 302.63069759 460.99488707 300.97433472 461.81845093 C296.59156481 463.99360209 292.20085806 466.15222377 287.80810547 468.30712891 C282.54673768 470.89137489 277.29395845 473.49301093 272.04076958 476.09383202 C267.93461819 478.12663458 263.82711743 480.15647239 259.71438599 482.17593384 C251.0155186 486.4555947 242.39754015 490.86191178 233.83044624 495.39975929 C226.83413277 499.1021841 219.77779488 502.66782875 212.6875 506.1875 C211.41483524 506.82161304 210.14229638 507.45597882 208.86987305 508.09057617 C204.25168227 510.39315128 199.63125971 512.6912329 195.01086426 514.98937988 C190.44356024 517.26138419 185.87722454 519.53531726 181.3125 521.8125 C180.3592836 522.28796768 180.3592836 522.28796768 179.3868103 522.77304077 C172.04862456 526.43643985 164.73967049 530.14498457 157.5 534 C149.62709186 538.19220494 141.66870085 542.20644904 133.6875 546.1875 C133.05290863 546.50407562 132.41831726 546.82065125 131.76449585 547.14682007 C126.5150425 549.76453907 121.26298489 552.37701795 116.01086426 554.98937988 C111.44356024 557.26138419 106.87722454 559.53531726 102.3125 561.8125 C101.3592836 562.28796768 101.3592836 562.28796768 100.3868103 562.77304077 C93.04862456 566.43643985 85.73967049 570.14498457 78.5 574 C70.62709186 578.19220494 62.66870085 582.20644904 54.6875 586.1875 C54.05290863 586.50407562 53.41831726 586.82065125 52.76449585 587.14682007 C47.5150425 589.76453907 42.26298489 592.37701795 37.01086426 594.98937988 C32.44356025 597.26138418 27.87721929 599.53530675 23.3125 601.8125 C22.68028345 602.12785831 22.0480669 602.44321663 21.39669228 602.76813126 C13.09496553 606.91267639 4.84286703 611.13827577 -3.35017395 615.49386597 C-12.21484126 620.19859447 -21.20257277 624.65561485 -30.1875 629.125 C-31.93173634 629.99459971 -33.67587731 630.86439073 -35.41992188 631.734375 C-39.61219293 633.82510815 -43.80571882 635.91330254 -48 638 C-50.20700226 635.79299774 -50.4270601 634.9521225 -51.08384705 631.99240303 C-51.27469911 631.14935619 -51.46555117 630.30630936 -51.66218662 629.43771565 C-51.86510791 628.50622633 -52.06802919 627.57473702 -52.27709961 626.61502075 C-52.60831393 625.13670283 -52.60831393 625.13670283 -52.94621944 623.62851989 C-53.68867152 620.30612674 -54.42045152 616.98147236 -55.15234375 613.65673828 C-55.68077883 611.28171549 -56.20985693 608.90683569 -56.73953247 606.53208923 C-58.03029866 600.73696783 -59.31416014 594.94034221 -60.59488893 589.14299662 C-62.08780125 582.38660023 -63.58854637 575.63195134 -65.08963525 568.87736772 C-67.76991585 556.8154175 -70.44310254 544.75190616 -73.11230469 532.6875 C-75.69902321 520.99593966 -78.29058698 509.30546782 -80.88769531 497.61621094 C-81.04733682 496.8976813 -81.20697833 496.17915166 -81.37145746 495.43884839 C-81.53082965 494.72153491 -81.69020184 494.00422143 -81.8544035 493.26517117 C-82.17533304 491.8206978 -82.49626003 490.37622386 -82.81718445 488.93174934 C-82.97547515 488.21928614 -83.13376585 487.50682293 -83.29685324 486.77276994 C-85.77447308 475.62003164 -88.24740927 464.4662543 -90.71996254 453.31239185 C-91.6143453 449.27808733 -92.50945572 445.24394505 -93.40511107 441.20992287 C-94.96161469 434.19943135 -96.51490508 427.18823571 -98.06469345 420.17625618 C-98.57878576 417.85252133 -99.09393195 415.52901934 -99.61023331 413.20577431 C-106.72657105 381.17447441 -106.72657105 381.17447441 -104.75610352 374.25366211 C-104.26517464 372.45942307 -104.26517464 372.45942307 -103.764328 370.62893677 C-103.38626274 369.34495203 -103.00777455 368.06109176 -102.62890625 366.77734375 C-102.23924749 365.38862394 -101.85184839 363.99926845 -101.46650696 362.60934448 C-100.63257883 359.61968396 -99.78330721 356.63499128 -98.92156982 353.65322876 C-97.5268127 348.82667003 -96.16681803 343.99070419 -94.81103516 339.15307617 C-92.87659353 332.26155195 -90.92757788 325.37430381 -88.97021484 318.48925781 C-86.08887197 308.34597138 -83.26383066 298.18757164 -80.45703125 288.0234375 C-80.22924484 287.19883026 -80.00145844 286.37422302 -79.76676941 285.52462769 C-78.83982861 282.1688156 -77.91306239 278.81295545 -76.98672104 275.45697784 C-74.59361908 266.78857366 -72.18898473 258.12337889 -69.78382874 249.45831299 C-63.50975425 226.85339883 -57.25439536 204.24331705 -51.0018692 181.63243484 C-49.91868529 177.71540798 -48.83540109 173.79840885 -47.75211716 169.88140965 C-44.45250092 157.95044868 -41.15321914 146.01939524 -37.85399628 134.0883255 C-33.75113349 119.25105264 -29.6481638 104.41380935 -25.5447607 89.57668591 C-24.15580352 84.55444433 -22.76692612 79.53218073 -21.37826538 74.50985718 C-20.85268209 72.60902896 -20.3270982 70.70820092 -19.80151367 68.80737305 C-19.54536695 67.88096292 -19.28922022 66.95455278 -19.02531147 66.00006962 C-17.77822877 61.49014813 -16.53058875 56.98038217 -15.2816925 52.47096252 C-14.80107403 50.73552511 -14.32045775 49.00008709 -13.83984375 47.26464844 C-13.60537631 46.41807899 -13.37090887 45.57150953 -13.12933636 44.69928646 C-11.67903505 39.460379 -10.23416404 34.22000421 -8.7930603 28.97855949 C-7.85651594 25.57388827 -6.91743357 22.16992017 -5.97790527 18.76607132 C-5.53781615 17.1691512 -5.09891302 15.57190372 -4.66125488 13.97431564 C-4.06494005 11.7979524 -3.46460243 9.62273828 -2.86328125 7.44775391 C-2.52594971 6.22085846 -2.18861816 4.99396301 -1.84106445 3.72988892 C-1 1 -1 1 0 0 Z " fill="#E1136D" transform="translate(458,57)"/>
<path d="M0 0 C17.06704368 1.59340753 34.08017344 3.62646729 51.09828866 5.66566443 C55.26746144 6.16480052 59.43690191 6.66169162 63.60630798 7.15887451 C70.82291895 8.01972657 78.03936339 8.88196309 85.25569344 9.74516678 C95.76185544 11.00189056 106.26827451 12.25645459 116.77475255 13.51053314 C133.92301168 15.55744882 151.07106736 17.60606379 168.21899414 19.65576172 C184.69707948 21.62538946 201.17525638 23.59424819 217.65356445 25.56201172 C218.66185041 25.68241686 219.67013637 25.802822 220.70897646 25.92687578 C225.77764973 26.53214973 230.84632491 27.13740777 235.91500103 27.7426579 C260.12581705 30.63368066 284.33660029 33.52497787 308.54718842 36.41790842 C311.24201736 36.73991193 313.93684827 37.06189899 316.63167936 37.38388455 C324.4337751 38.31612745 332.23585356 39.24851409 340.037849 40.18159617 C344.1932003 40.67855189 348.34856468 41.17539829 352.50393677 41.67218018 C353.31330325 41.76894322 354.12266974 41.86570626 354.95656248 41.96540152 C366.44642319 43.33882972 377.93701945 44.70596642 389.42810956 46.06906809 C394.16279157 46.63090327 398.89735647 47.19372458 403.63192035 47.75655424 C408.04450997 48.28096731 412.45730153 48.80363585 416.87026057 49.32493061 C418.90464333 49.56555743 420.93891655 49.807086 422.97314322 50.04902864 C425.42611094 50.34076506 427.87925085 50.63105893 430.33259523 50.91961074 C431.40971006 51.04816837 432.48682488 51.17672599 433.59657955 51.30917931 C434.52586236 51.41922212 435.45514517 51.52926493 436.41258806 51.64264238 C438.96889007 51.99570329 441.47570434 52.46669498 444 53 C441.34913214 64.62952887 438.399915 76.14228563 435.203125 87.6328125 C434.73674961 89.31871643 434.27067394 91.0047033 433.80487061 92.69076538 C432.81026456 96.28858763 431.81366701 99.88584961 430.81542969 103.48266602 C429.21484965 109.24991609 427.61881915 115.01841945 426.0234375 120.78710938 C424.0723675 127.840863 422.1202882 134.89433567 420.16686249 141.94743729 C416.74467427 154.30412328 413.33048571 166.66299965 409.921875 179.0234375 C409.55411831 180.35699217 409.55411831 180.35699217 409.17893219 181.71748734 C407.94578409 186.18928938 406.71278677 190.66113298 405.4798584 195.13299561 C403.23785393 203.26451619 400.99449627 211.3956635 398.75125885 219.52684402 C397.50078554 224.05954787 396.250397 228.5922751 395 233.125 C394.50000041 234.93750011 394.00000041 236.75000011 393.5 238.5625 C393.12875 239.90828125 393.12875 239.90828125 392.75 241.28125 C392 244 391.25 246.71875 390.5 249.4375 C390.25249371 250.33471047 390.00498741 251.23192095 389.74998093 252.15631962 C389.25004483 253.96858765 388.75010841 255.78085559 388.25017166 257.59312344 C386.99919125 262.12792185 385.74821653 266.66272184 384.49725342 271.19752502 C382.25896656 279.3114044 380.02064295 287.42527362 377.78210068 295.53908253 C376.54741347 300.01432836 375.3127604 304.48958362 374.078125 308.96484375 C373.83305458 309.85316328 373.58798416 310.74148281 373.33548737 311.65672112 C369.88461502 324.16553688 366.43536187 336.67479829 362.98718262 349.18435669 C361.0448853 356.23073847 359.10216669 363.27700408 357.15935516 370.32324409 C355.57848257 376.05694772 353.99816888 381.79080499 352.41828537 387.52478123 C351.44102472 391.07108225 350.4632184 394.61723266 349.48526764 398.16334343 C349.03573133 399.79381994 348.58641624 401.42435747 348.13735199 403.05496407 C345.47594979 412.71833717 342.7736714 422.36818461 340 432 C339.01 432 338.02 432 337 432 C334.87109375 429.83203125 334.87109375 429.83203125 332.4375 426.8125 C331.99913818 426.27222168 331.56077637 425.73194336 331.10913086 425.17529297 C327.17192439 420.29369138 323.35240306 415.31950029 319.55078125 410.33203125 C316.98260742 406.96666785 314.37095078 403.63684149 311.75 400.3125 C307.47875198 394.89138887 303.23366665 389.45050829 299 384 C293.02691252 376.31198784 287.0231957 368.64878681 281 361 C274.37131523 352.5823096 267.77238628 344.14239362 261.19873047 335.68164062 C255.82461108 328.76763784 250.41769964 321.87987433 245 315 C238.37131523 306.5823096 231.77238628 298.14239362 225.19873047 289.68164062 C219.82461108 282.76763784 214.41769964 275.87987433 209 269 C202.37131523 260.5823096 195.77238628 252.14239362 189.19873047 243.68164062 C183.82461108 236.76763784 178.41769964 229.87987433 173 223 C166.36905089 214.57943414 159.7675038 206.13691374 153.19213867 197.67285156 C149.64161106 193.10448985 146.07931469 188.54583587 142.5 184 C138.31299655 178.68238137 134.15218198 173.34484789 130 168 C124.02685416 160.31203286 118.02319602 152.64878722 112 145 C105.37131523 136.5823096 98.77238628 128.14239362 92.19873047 119.68164062 C86.82461108 112.76763784 81.41769964 105.87987433 76 99 C69.37131523 90.5823096 62.77238628 82.14239362 56.19873047 73.68164062 C50.82461108 66.76763784 45.41769964 59.87987433 40 53 C33.37648209 44.58887094 26.78260616 36.15560315 20.21411133 27.70141602 C16.44634216 22.85402106 12.66833901 18.01491361 8.875 13.1875 C8.43800781 12.63126953 8.00101563 12.07503906 7.55078125 11.50195312 C5.62610382 9.05538041 3.69000241 6.62852831 1.6953125 4.23828125 C0 2 0 2 0 0 Z " fill="#D11F53" transform="translate(4,1)"/>
<path d="M0 0 C12.67730222 1.38064661 25.25433427 3.20278423 37.84863281 5.19506836 C39.89878713 5.51688258 41.94898715 5.83840572 43.99922848 6.15966511 C48.41166159 6.85171163 52.82376411 7.54581642 57.23561668 8.24155426 C64.35735818 9.36462794 71.47982579 10.48305109 78.60237122 11.60101318 C89.49413251 13.31113861 100.385465 15.02397566 111.27656543 16.73830451 C135.35030008 20.52763484 159.42512809 24.3100123 183.49994602 28.09245311 C188.23566302 28.83651133 192.97134462 29.58079458 197.70701408 30.32515526 C232.03176004 35.7202075 266.36048165 41.08887939 300.69669724 46.41052055 C306.91573709 47.37440498 313.13459775 48.33944174 319.35342407 49.30470276 C323.33098835 49.92200073 327.30855953 50.53925421 331.28613281 51.15649414 C332.24776455 51.30572991 333.20939628 51.45496569 334.20016837 51.60872376 C345.48738936 53.36020068 356.77533094 55.1068863 368.06440383 56.84638774 C375.02600821 57.91943826 381.98680647 58.99761124 388.94697732 60.07992089 C393.66252611 60.81292719 398.37895737 61.53981804 403.09622657 62.26166528 C405.91944929 62.69527118 408.74168422 63.13503934 411.56365156 63.57673466 C413.46537948 63.87252366 415.3682608 64.16086721 417.27116776 64.44897366 C418.38933758 64.62534894 419.5075074 64.80172422 420.65956116 64.98344421 C421.62603608 65.13265162 422.59251101 65.28185904 423.58827305 65.43558788 C426 66 426 66 429 68 C418.12190875 73.8183564 407.16462465 79.46284195 396.125 84.96875 C395.51510223 85.27297882 394.90520447 85.57720764 394.27682495 85.89065552 C389.21422323 88.41495617 384.1490179 90.93401655 379.08374023 93.45294189 C374.67964027 95.64333413 370.27651437 97.8356663 365.875 100.03125 C365.26133575 100.33732178 364.64767151 100.64339355 364.01541138 100.95874023 C356.82177621 104.54978157 349.65970476 108.19018586 342.5625 111.96875 C334.66849736 116.17084902 326.68952838 120.1960652 318.6875 124.1875 C317.7357489 124.66229546 317.7357489 124.66229546 316.76477051 125.14668274 C311.5152256 127.76444751 306.26307654 130.37697236 301.01086426 132.98937988 C296.44356024 135.26138419 291.87722454 137.53531726 287.3125 139.8125 C286.3592836 140.28796768 286.3592836 140.28796768 285.3868103 140.77304077 C278.04862456 144.43643985 270.73967049 148.14498457 263.5 152 C255.62709186 156.19220494 247.66870085 160.20644904 239.6875 164.1875 C238.73561295 164.66236343 238.73561295 164.66236343 237.76449585 165.14682007 C232.5150425 167.76453907 227.26298489 170.37701795 222.01086426 172.98937988 C217.44356024 175.26138419 212.87722454 177.53531726 208.3125 179.8125 C207.3592836 180.28796768 207.3592836 180.28796768 206.3868103 180.77304077 C199.04862456 184.43643985 191.73967049 188.14498457 184.5 192 C176.62709186 196.19220494 168.66870085 200.20644904 160.6875 204.1875 C159.73561295 204.66236343 159.73561295 204.66236343 158.76449585 205.14682007 C153.5150425 207.76453907 148.26298489 210.37701795 143.01086426 212.98937988 C138.44356025 215.26138418 133.87721929 217.53530675 129.3125 219.8125 C128.36417518 220.28553747 128.36417518 220.28553747 127.39669228 220.76813126 C119.09496553 224.91267639 110.84286703 229.13827577 102.64982605 233.49386597 C93.78515874 238.19859447 84.79742723 242.65561485 75.8125 247.125 C74.06826366 247.99459971 72.32412269 248.86439073 70.58007812 249.734375 C66.38780707 251.82510815 62.19428118 253.91330254 58 256 C55.7923266 253.7923266 55.57272079 252.95053612 54.91615295 249.98960972 C54.72530089 249.14594618 54.53444883 248.30228265 54.33781338 247.43305355 C54.13489209 246.50088212 53.93197081 245.56871068 53.72290039 244.60829163 C53.50209085 243.62204078 53.2812813 242.63578993 53.05378056 241.61965269 C52.31133221 238.2949237 51.57955257 234.96793568 50.84765625 231.64086914 C50.31922408 229.26422328 49.79014591 226.88772097 49.26046753 224.51135254 C47.96973522 218.71254324 46.6858876 212.9122481 45.40511107 207.11123491 C43.91233872 200.35155827 42.41155483 193.59366839 40.91036475 186.83585709 C38.23017065 174.76941365 35.55691441 162.70144388 32.88769531 150.63256836 C30.30043088 138.93429461 27.70891518 127.23697439 25.11230469 115.54077148 C24.95266318 114.82167644 24.79302167 114.1025814 24.62854254 113.3616956 C24.30691503 111.9129625 23.98528648 110.46422963 23.66365689 109.015497 C23.42564043 107.94338687 23.42564043 107.94338687 23.18281555 106.84961796 C22.9453795 105.78013807 22.9453795 105.78013807 22.70314676 104.68905253 C20.2263635 93.53226638 17.75291125 82.37474144 15.28003746 71.21708821 C14.53394444 67.85075633 13.78769732 64.48445877 13.04109573 61.11823964 C11.33675385 53.43374208 9.63439385 45.74880999 7.93530655 38.0631485 C7.42084347 35.73746325 6.90568471 33.41193176 6.38976669 31.08656883 C5.68358894 27.9029951 4.9800179 24.71885591 4.27709961 21.53456116 C4.07417832 20.62246622 3.87125704 19.71037128 3.66218662 18.77063709 C2.29058908 12.53880576 1.10341471 6.28469066 0 0 Z " fill="#D11F53" transform="translate(352,439)"/>
<path d="M0 0 C0.99 0.495 0.99 0.495 2 1 C2.67915362 3.05602866 2.67915362 3.05602866 3.2952528 5.8283205 C3.5332391 6.87983022 3.7712254 7.93133994 4.0164234 9.01471359 C4.27197338 10.18413865 4.52752335 11.35356372 4.79081726 12.5584259 C5.06682968 13.78969088 5.34284211 15.02095585 5.62721854 16.28953189 C6.39621111 19.72114972 7.15452511 23.15505409 7.9111706 26.58941233 C8.72782881 30.28751693 9.55419474 33.98345248 10.3793335 37.67967224 C11.99554752 44.92706256 13.60252803 52.17647066 15.20624026 59.42663649 C16.50950511 65.31777809 17.81602145 71.2081896 19.12488747 77.09808922 C19.31085441 77.93495793 19.49682136 78.77182664 19.68842367 79.63405501 C20.06617841 81.33392609 20.4439401 83.03379563 20.82170866 84.73366364 C24.36791871 100.69263998 27.90363378 116.65392755 31.43585185 132.61600568 C34.46882775 146.32081595 37.51098246 160.02356229 40.55981445 173.72485352 C44.09692979 189.62047967 47.62819227 205.51738764 51.15022117 221.41636389 C51.52565909 223.1110656 51.90110528 224.80576547 52.27655983 226.50046349 C52.46130595 227.33436695 52.64605208 228.16827041 52.83639657 229.02744368 C54.14048584 234.91187026 55.44879346 240.79534979 56.75873375 246.67847633 C58.3547789 253.84704207 59.94445341 261.01698443 61.52590378 268.18878464 C62.33340167 271.84996851 63.14379669 275.51044738 63.96196938 279.16926193 C64.84776711 283.13094117 65.71966322 287.09554805 66.59013367 291.06062317 C66.8523758 292.22335607 67.11461794 293.38608897 67.38480681 294.5840562 C67.7300514 296.17305564 67.7300514 296.17305564 68.08227062 297.79415607 C68.28509629 298.70949944 68.48792197 299.6248428 68.69689387 300.56792384 C69.01349664 303.10829493 68.93611936 304.62722592 68 307 C66.0368425 308.7656447 64.11717571 310.31627607 62 311.875 C60.71460371 312.85214138 59.43081959 313.83140619 58.1484375 314.8125 C57.47006836 315.32941406 56.79169922 315.84632813 56.09277344 316.37890625 C52.53858766 319.13203196 49.08458285 322.00453605 45.625 324.875 C44.18123438 326.0693064 42.73722305 327.26331584 41.29296875 328.45703125 C40.22248291 329.34189209 40.22248291 329.34189209 39.13037109 330.24462891 C33.77390884 334.6582163 28.3752749 339.02032804 22.98388672 343.39111328 C19.65393555 346.09162745 16.32712266 348.79600243 13 351.5 C8.94194712 354.7975415 4.88358278 358.09469764 0.82421875 361.390625 C-4.95735602 366.08543759 -10.73849273 370.78055907 -16.5 375.5 C-22.9574452 380.78950668 -29.43918576 386.04902661 -35.91943359 391.31054688 C-39.28025428 394.03958691 -42.6400889 396.76984025 -46 399.5 C-47.33332835 400.58333946 -48.66666169 401.66667279 -50 402.75 C-50.99 403.554375 -50.99 403.554375 -52 404.375 C-90.00000001 435.25000001 -90.00000001 435.25000001 -92.0012207 436.87597656 C-93.33050495 437.95603016 -94.65976937 439.03610817 -95.98901367 440.11621094 C-99.38413329 442.87492773 -102.77962852 445.63318009 -106.17578125 448.390625 C-106.8625293 448.9484668 -107.54927734 449.50630859 -108.25683594 450.08105469 C-109.61227464 451.1815035 -110.96837972 452.2811321 -112.32519531 453.37988281 C-115.33992167 455.82380896 -118.34281354 458.27805576 -121.30859375 460.78125 C-122.76458984 462.00328125 -122.76458984 462.00328125 -124.25 463.25 C-125.49523437 464.30960938 -125.49523437 464.30960938 -126.765625 465.390625 C-128.97166223 466.97958888 -130.39574528 467.4408713 -133 468 C-131.50257225 459.42191616 -129.15355163 451.11124066 -126.75561523 442.75219727 C-126.31999582 441.22265837 -125.88472714 439.69301955 -125.4497776 438.16329002 C-124.26200045 433.98953191 -123.06940132 429.81716517 -121.87599874 425.64501262 C-120.58936565 421.14360528 -119.30730643 416.64089542 -118.02476501 412.13832092 C-115.82272147 404.40969875 -113.61807458 396.68182328 -111.4118042 388.95440674 C-108.05305217 377.18975667 -104.70183004 365.42296925 -101.35205078 353.65576172 C-94.57364724 329.8464853 -87.78847208 306.03914145 -81.00173855 282.23223829 C-80.05444593 278.90924729 -79.10717943 275.58624884 -78.15991974 272.26324844 C-68.75818671 239.28197129 -59.35374619 206.30146667 -49.94734097 173.32152176 C-49.00629831 170.02208284 -48.06528243 166.72263628 -47.12427521 163.42318726 C-40.13734064 138.9250131 -33.14888533 114.4272743 -26.15502262 89.931077 C-25.61879979 88.05293866 -25.08257764 86.17480012 -24.5463562 84.29666138 C-24.15177807 82.91464138 -24.15177807 82.91464138 -23.74922866 81.50470179 C-21.9051783 75.04551077 -20.06213118 68.58603402 -18.21951294 62.12643433 C-16.00230145 54.35370489 -13.78372607 46.58136646 -11.56327993 38.80956042 C-10.44102332 34.88141958 -9.31939174 30.95310318 -8.19945717 27.02429962 C-7.18228616 23.45607752 -6.16330778 19.88837696 -5.14282596 16.32110035 C-4.59880524 14.41758014 -4.05674461 12.51350009 -3.51474094 10.60940456 C-3.03496752 8.93437658 -3.03496752 8.93437658 -2.54550171 7.22550964 C-2.13087708 5.77322354 -2.13087708 5.77322354 -1.70787621 4.29159832 C-1 2 -1 2 0 0 Z " fill="#9E1638" transform="translate(343,449)"/>
<path d="M0 0 C-5.53137942 16.00644389 -11.30749473 31.92146089 -17.1253891 47.82545853 C-17.88608144 49.90529821 -18.64626982 51.98532146 -19.40631104 54.06539917 C-27.87116921 77.23093226 -36.39287284 100.37510636 -44.96289062 123.50195312 C-48.52100357 133.1039604 -52.07373494 142.70795826 -55.625 152.3125 C-55.97374176 153.25556 -56.32248352 154.19862 -56.68179321 155.17025757 C-64.17172965 175.42835555 -71.59518889 195.71065428 -79 216 C-82.05766342 214.67908291 -83.69020511 213.46795581 -85.55859375 210.71875 C-86.01999756 210.05109619 -86.48140137 209.38344238 -86.95678711 208.69555664 C-87.44542236 207.97102295 -87.93405762 207.24648926 -88.4375 206.5 C-89.50938733 204.94590413 -90.58233907 203.39254197 -91.65625 201.83984375 C-92.20796875 201.03788574 -92.7596875 200.23592773 -93.328125 199.40966797 C-95.97881939 195.58923081 -98.7064451 191.82570929 -101.4375 188.0625 C-102.52998792 186.55341437 -103.62243563 185.04429964 -104.71484375 183.53515625 C-105.25737793 182.78637207 -105.79991211 182.03758789 -106.35888672 181.26611328 C-109.07648173 177.513552 -111.78794473 173.75656581 -114.5 170 C-115.58330362 168.49997854 -116.66663696 166.99997854 -117.75 165.5 C-124.25 156.5 -124.25 156.5 -125.87475586 154.25024414 C-126.95878416 152.7493445 -128.04293142 151.24853078 -129.12719727 149.74780273 C-131.82587655 146.01226033 -134.52251312 142.27527746 -137.21484375 138.53515625 C-142.82903178 130.74084153 -148.47885383 122.975464 -154.1875 115.25 C-159.00286929 108.73277127 -163.75864473 102.17886685 -168.453125 95.57421875 C-171.38542733 91.45110426 -174.34848276 87.35034806 -177.3125 83.25 C-177.86043213 82.49195068 -178.40836426 81.73390137 -178.97290039 80.95288086 C-180.09072453 79.40666903 -181.20864504 77.86052687 -182.32666016 76.31445312 C-185.05263139 72.54406981 -187.77621587 68.77196345 -190.5 65 C-191.56639434 63.5234289 -192.63280064 62.04686644 -193.69921875 60.5703125 C-199.1328125 53.046875 -204.56640625 45.5234375 -210 38 C-206.49881236 35.66587491 -203.33358693 35.14278218 -199.2766571 34.43748474 C-198.48203451 34.29355712 -197.68741192 34.14962951 -196.86870986 34.00134045 C-194.19838651 33.51945857 -191.5263676 33.04773959 -188.85424805 32.57592773 C-186.94227384 32.23303914 -185.03041111 31.88952842 -183.11865234 31.54544067 C-177.91930229 30.61147442 -172.71842527 29.68627829 -167.51723456 28.76262546 C-162.07787855 27.79517213 -156.63994763 26.8197747 -151.20185852 25.8452301 C-140.8934485 23.9991534 -130.58375258 22.16036231 -120.273588 20.32411295 C-108.56223285 18.23791959 -96.85239494 16.1432715 -85.14265001 14.04806221 C-67.88664245 10.96075053 -50.63006668 7.87661937 -33.37204742 4.80057144 C-31.50236645 4.46730063 -29.63270463 4.13392229 -27.76306343 3.80042839 C-25.21020165 3.3451173 -22.65726073 2.89025284 -20.10429382 2.43553162 C-18.99547656 2.23767245 -18.99547656 2.23767245 -17.86425894 2.03581613 C-15.90995127 1.6880324 -13.95499808 1.34388153 -12 1 C-10.91245831 0.80668122 -9.82491663 0.61336245 -8.70441914 0.41418552 C-5.76742693 -0.03561889 -2.96666851 -0.07063496 0 0 Z " fill="#D11F53" transform="translate(873,288)"/>
<path d="M0 0 C-0.18280014 0.62380051 -0.36560028 1.24760101 -0.55393982 1.89030457 C-2.07939328 7.26501432 -3.28048652 12.55521401 -4.19946289 18.06762695 C-6.06953127 27.29106988 -8.25941577 37.78095863 -16.25408936 43.67425537 C-25.52452796 49.53992667 -36.3478137 52.7829748 -46.67846298 56.24468231 C-51.40565105 57.86005626 -56.0807383 59.61405929 -60.76098633 61.35986328 C-66.78197562 63.59767534 -72.8060062 65.82434707 -78.8502655 67.99865723 C-94.12237732 73.49689867 -109.22057259 79.35831255 -124.265625 85.44921875 C-125.36716793 85.89504177 -126.46871086 86.34086479 -127.60363388 86.8001976 C-133.21093666 89.07153851 -138.8160029 91.34833864 -144.42010498 93.62756348 C-154.57659718 97.75538939 -164.75172923 101.8368556 -174.92589951 105.92086411 C-178.29710431 107.27429933 -181.66791432 108.62871321 -185.03860474 109.98342896 C-218.61169113 123.47572847 -252.21152063 136.90131954 -285.81103516 150.32763672 C-294.71202678 153.88448416 -303.61206314 157.44371743 -312.51171875 161.00390625 C-313.1625474 161.264261 -313.81337605 161.52461575 -314.48392677 161.79286003 C-317.98931591 163.19516155 -321.49467388 164.59754097 -325 166 C-325.33 165.34 -325.66 164.68 -326 164 C-325.39073166 163.69647614 -324.78146332 163.39295227 -324.1537323 163.08023071 C-318.31628292 160.17166622 -312.47988281 157.26100736 -306.644557 154.34818459 C-303.64696295 152.85195981 -300.6489035 151.35668683 -297.65014648 149.86279297 C-285.67697822 143.89753126 -273.72598186 137.90919791 -261.91215515 131.63345337 C-251.44107855 126.08715484 -240.80143738 120.87226607 -230.18847656 115.60449219 C-219.76542046 110.42742951 -209.389183 105.18711741 -199.1081543 99.73303223 C-188.94595894 94.35807004 -178.63150323 89.28639968 -168.33398438 84.17724609 C-159.02568359 79.55553475 -149.74352809 74.90178492 -140.5625 70.03125 C-129.21053873 64.00990389 -117.69789524 58.31722553 -106.18847656 52.60449219 C-95.76542046 47.42742951 -85.389183 42.18711741 -75.1081543 36.73303223 C-64.94595894 31.35807004 -54.63150323 26.28639968 -44.33398438 21.17724609 C-32.42654782 15.26502475 -20.59894353 9.22859189 -8.86499023 2.97839355 C-8.24954346 2.65552368 -7.63409668 2.33265381 -7 2 C-6.32332275 1.62846802 -5.64664551 1.25693604 -4.94946289 0.87414551 C-3 0 -3 0 0 0 Z " fill="#E1136D" transform="translate(785,516)"/>
<path d="M0 0 C6.02248357 4.99108205 11.54000696 10.39483342 17.0625 15.9296875 C18.02207144 16.88858339 18.98179111 17.84733096 19.94165039 18.80593872 C21.94352176 20.80634419 23.94359538 22.80852494 25.94238281 24.81201172 C28.48385875 27.35917646 31.0297888 29.90183423 33.57710266 32.4431591 C35.55738642 34.41980053 37.53524684 36.39885312 39.51242065 38.37860489 C40.8995967 39.76675752 42.28876022 41.15292318 43.67797852 42.53903198 C48.0704656 46.94766033 52.30365637 51.41760943 56.35940552 56.13702393 C59.10984481 59.26028361 62.06528412 62.16887363 65.02734375 65.08984375 C65.66112442 65.7198378 66.29490509 66.34983185 66.94789124 66.99891663 C68.94197828 68.9809309 70.93931963 70.95961308 72.9375 72.9375 C75.59527954 75.56878061 78.24978455 78.20330193 80.90234375 80.83984375 C81.51472397 81.44392563 82.12710419 82.04800751 82.75804138 82.6703949 C84.19094488 84.09481608 85.59841051 85.54475602 87 87 C87 87.33 87 87.66 87 88 C79.08267532 88.83925554 71.22794025 89.19817786 63.26953125 89.31640625 C62.05961517 89.33723267 60.8496991 89.35805908 59.6031189 89.3795166 C56.34564286 89.43401071 53.08814099 89.4845032 49.83056259 89.53242874 C47.80487745 89.56261358 45.77922363 89.59441756 43.75357056 89.62667847 C18.16889425 90.03171201 -7.41237825 90.11809951 -33 90 C-28.02525249 75.52476109 -22.89949192 61.11456809 -17.57275391 46.76513672 C-16.49780646 43.86909031 -15.42637418 40.97176196 -14.35546875 38.07421875 C-9.64769125 25.35308313 -4.85284919 12.66647 0 0 Z " fill="#E1136D" transform="translate(884,289)"/>
<path d="M0 0 C7.13451283 -0.20331468 14.26827573 -0.34313416 21.4050293 -0.43945312 C23.83109451 -0.47961494 26.25696693 -0.53415755 28.68237305 -0.60351562 C32.17545144 -0.70088366 35.66596566 -0.74600092 39.16015625 -0.78125 C40.23959 -0.82254028 41.31902374 -0.86383057 42.4311676 -0.90637207 C49.83656246 -0.91075675 49.83656246 -0.91075675 53.2024231 1.72409058 C54.98219119 3.73706747 56.50690215 5.76910477 58 8 C58.81984375 9.03382812 59.6396875 10.06765625 60.484375 11.1328125 C61.23203125 12.12023437 61.9796875 13.10765625 62.75 14.125 C63.61392988 15.25961244 64.4785367 16.39370969 65.34375 17.52734375 C65.78203125 18.10210449 66.2203125 18.67686523 66.671875 19.26904297 C68.83989565 22.09464342 71.04464974 24.89100006 73.25 27.6875 C77.52131919 33.10855421 81.76637223 38.54946267 86 44 C90.15210372 49.34490823 94.31299696 54.6823819 98.5 60 C102.68700345 65.31761863 106.84781802 70.65515211 111 76 C116.97314584 83.68796714 122.97680398 91.35121278 129 99 C135.63094911 107.42056586 142.2324962 115.86308626 148.80786133 124.32714844 C152.35838946 128.89551081 155.92077221 133.45409522 159.5 138 C169.41807533 150.6007277 179.24240808 163.27466123 189 176 C188.67 176.66 188.34 177.32 188 178 C185.31073183 175.48104761 182.62391938 172.95949008 179.9375 170.4375 C178.80924805 169.38079102 178.80924805 169.38079102 177.65820312 168.30273438 C173.52996252 164.42469017 169.47446037 160.49290589 165.4855957 156.47192383 C163.76688155 154.76902693 161.9773402 153.18096577 160.125 151.625 C157.1153247 149.03365795 154.28911384 146.32745217 151.5 143.5 C148.7514401 140.71378859 145.97140209 138.04691608 143 135.5 C140.02859791 132.95308392 137.2485599 130.28621141 134.5 127.5 C131.77170593 124.73439592 129.01483166 122.08712969 126.0625 119.5625 C121.96941697 116.0553056 118.22775296 112.24274842 114.44140625 108.41015625 C111.72797273 105.73145468 108.89222977 103.25391882 105.99609375 100.77734375 C102.93196187 98.04900715 100.09518168 95.10332092 97.21484375 92.18359375 C95.22340539 90.22025329 93.18697422 88.37920331 91.0625 86.5625 C86.96941697 83.0553056 83.22775296 79.24274842 79.44140625 75.41015625 C76.72797273 72.73145468 73.89222977 70.25391882 70.99609375 67.77734375 C67.93333273 65.05022777 65.09776507 62.10595363 62.21875 59.1875 C60.20569368 57.20279658 58.14553597 55.33903084 56 53.5 C53.02859791 50.95308392 50.2485599 48.28621141 47.5 45.5 C44.77170593 42.73439592 42.01483166 40.08712969 39.0625 37.5625 C34.96941697 34.0553056 31.22775296 30.24274842 27.44140625 26.41015625 C24.72797273 23.73145468 21.89222977 21.25391882 18.99609375 18.77734375 C15.94491873 16.06054407 13.11922798 13.12892025 10.25390625 10.21875 C7.43026946 7.43915608 4.46326203 4.8637996 1.43359375 2.3125 C0.96050781 1.879375 0.48742188 1.44625 0 1 C0 0.67 0 0.34 0 0 Z " fill="#9E1638" transform="translate(0,76)"/>
</svg>
